HIERARCHY
ROOT hip
{
	OFFSET 0.00 0.00 0.00
	CHANNELS 6 Xposition Yposition Zposition Xrotation Yrotation Zrotation
	JOINT abdomen
	{
		OFFSET 0.1133 -0.2307 3.3019
		CHANNELS 3 Xrotation Yrotation Zrotation
		JOINT chest
		{
			OFFSET 0.1107 -0.1768 21.1967
			CHANNELS 3 Xrotation Yrotation Zrotation
			JOINT neck
			{
				OFFSET 0.0000 4.3081 22.9801
				CHANNELS 3 Xrotation Yrotation Zrotation
				JOINT head
				{
					OFFSET -0.2563 10.9448 8.9477
					CHANNELS 3 Xrotation Yrotation Zrotation
					End Site
					{
						OFFSET 0.0000 3.1102 -0.0000
					}
				}
			}
			JOINT lCollar
			{
				OFFSET 3.1323 1.7225 21.1460
				CHANNELS 3 Xrotation Yrotation Zrotation
				JOINT lShldr
				{
					OFFSET 3.2739 -5.2688 -1.2145
					CHANNELS 3 Xrotation Yrotation Zrotation
					JOINT lForeArm
					{
						OFFSET -0.3326 -12.9583 -1.4234
						CHANNELS 3 Xrotation Yrotation Zrotation
						JOINT lHand
						{
							OFFSET -0.8016 -18.3420 1.0179
							CHANNELS 3 Xrotation Yrotation Zrotation
							End Site
							{
								OFFSET 3.9370 0.0000 0.0000
							}
						}
					}
				}
			}
			JOINT rCollar
			{
				OFFSET -2.7896 1.7225 21.1460
				CHANNELS 3 Xrotation Yrotation Zrotation
				JOINT rShldr
				{
					OFFSET -3.2739 -5.2688 -1.2145
					CHANNELS 3 Xrotation Yrotation Zrotation
					JOINT rForeArm
					{
						OFFSET 0.3326 -12.9583 -1.4234
						CHANNELS 3 Xrotation Yrotation Zrotation
						JOINT rHand
						{
							OFFSET 0.8016 -18.3420 1.0179
							CHANNELS 3 Xrotation Yrotation Zrotation
							End Site
							{
								OFFSET -3.9370 0.0000 0.0000
							}
						}
					}
				}
			}
		}
	}
	JOINT rThigh
	{
		OFFSET -4.8916 -5.5348 3.1237
		CHANNELS 3 Xrotation Yrotation Zrotation
		JOINT rShin
		{
			OFFSET -0.3314 -17.2252 -1.2799
			CHANNELS 3 Xrotation Yrotation Zrotation
			JOINT rFoot
			{
				OFFSET 0.5200 -10.7369 0.2921
				CHANNELS 3 Xrotation Yrotation Zrotation
				End Site
				{
					OFFSET 0.0000 -2.3873 4.4077
				}
			}
		}
	}
	JOINT lThigh
	{
		OFFSET 5.6823 -5.5348 3.1237
		CHANNELS 3 Xrotation Yrotation Zrotation
		JOINT lShin
		{
			OFFSET 0.3314 -17.2252 -1.2799
			CHANNELS 3 Xrotation Yrotation Zrotation
			JOINT lFoot
			{
				OFFSET -0.5200 -10.7369 0.2921
				CHANNELS 3 Xrotation Yrotation Zrotation
				End Site
				{
					OFFSET 0.0000 -2.3866 4.4077
				}
			}
		}
	}
}
MOTION
Frames: 13
Frame Time: 0.041667
0.0000 0.0000 0.1000 1.0000 0.0000 0.0000 1.0000 0.0000 0.0000 1.0000 0.0000 0.0000 1.0000 0.0000 0.0000 1.0000 0.0000 0.0000 1.0000 0.0000 0.0000 1.0000 0.0000 0.0000 1.8350 0.0000 0.0000 1.0000 0.0000 0.0000 1.0000 0.0000 0.0000 1.0000 0.0000 0.0000 1.0000 0.0000 0.0000 1.0000 0.0000 0.0000 1.0000 0.0000 0.0000 1.0000 0.0000 0.0000 1.0000 0.0000 0.0000 1.0000 0.0000 0.0000 1.0000 0.0000 0.0000 1.0000 0.0000 0.0000 
0.0000 0.0000 -0.0000 0.0000 0.0000 0.0000 0.0000 0.0000 0.0000 0.0000 0.0000 0.0000 0.0000 0.0000 0.0000 0.0000 0.0000 0.0000 0.0000 0.0000 0.0000 0.0000 0.0000 0.0000 0.8350 0.0000 0.0000 0.0000 0.0000 0.0000 0.0000 0.0000 0.0000 0.0000 0.0000 0.0000 0.0000 0.0000 0.0000 0.0000 0.0000 0.0000 0.0000 0.0000 0.0000 0.0000 0.0000 0.0000 0.0000 0.0000 0.0000 0.0000 0.0000 0.0000 0.0000 0.0000 0.0000 0.0000 0.0000 0.0000 
0.0002 -0.0114 -0.0098 0.0000 0.0000 0.0000 0.0000 0.0000 0.0000 0.0000 0.0000 0.0000 0.0246 0.0000 0.0000 -0.0305 0.0000 0.0000 0.0262 0.0000 0.0000 -0.0923 0.0000 0.0000 0.7925 0.0000 0.0000 0.0863 0.0000 0.0000 0.0262 0.0000 0.0000 -0.0923 0.0000 0.0000 -0.0424 0.0000 0.0000 0.0863 0.0000 0.0000 -0.0924 0.0000 0.0000 0.0000 -0.0021 -0.0064 0.0764 0.0062 -0.0020 -0.0924 0.0000 0.0000 0.0000 0.0028 0.0087 0.0768 -0.0086 0.0028 
0.0006 -0.0459 -0.0392 0.0000 0.0000 0.0000 0.0000 0.0000 0.0000 0.0000 0.0000 0.0000 0.0990 0.0000 0.0000 -0.1226 0.0000 0.0000 0.1052 0.0000 0.0000 -0.3710 0.0000 0.0000 0.6646 0.0000 0.0000 0.3467 0.0000 0.0000 0.1052 0.0000 0.0000 -0.3710 0.0000 0.0000 -0.1704 0.0000 0.0000 0.3467 0.0000 0.0000 -0.3714 0.0000 0.0000 0.0000 -0.0083 -0.0256 0.3069 0.0250 -0.0082 -0.3714 0.0000 0.0000 0.0000 0.0114 0.0351 0.3085 -0.0344 0.0113 
0.0015 -0.1037 -0.0886 0.0000 0.0000 0.0000 0.0000 0.0000 0.0000 0.0000 0.0000 0.0000 0.2234 0.0000 0.0000 -0.2767 0.0000 0.0000 0.2375 0.0000 0.0000 -0.8384 0.0000 0.0000 0.4503 0.0000 0.0000 0.7835 0.0000 0.0000 0.2375 0.0000 0.0000 -0.8384 0.0000 0.0000 -0.3847 0.0000 0.0000 0.7835 0.0000 0.0000 -0.8395 0.0000 0.0000 0.0000 -0.0188 -0.0578 0.6934 0.0563 -0.0187 -0.8394 0.0000 0.0000 0.0000 0.0258 0.0792 0.6968 -0.0777 0.0258 
0.0026 -0.1848 -0.1579 0.0000 0.0000 0.0000 0.0000 0.0000 0.0000 0.0000 0.0000 0.0000 0.3981 0.0000 0.0000 -0.4932 0.0000 0.0000 0.4233 0.0000 0.0000 -1.4970 0.0000 0.0000 0.1491 0.0000 0.0000 1.3985 0.0000 0.0000 0.4233 0.0000 0.0000 -1.4970 0.0000 0.0000 -0.6859 0.0000 0.0000 1.3985 0.0000 0.0000 -1.4988 0.0000 0.0000 0.0000 -0.0336 -0.1031 1.2373 0.1003 -0.0339 -1.4988 0.0000 0.0000 -0.0001 0.0460 0.1412 1.2435 -0.1384 0.0468 
0.0040 -0.2893 -0.2471 0.0000 0.0000 0.0000 0.0000 0.0000 0.0000 0.0000 0.0000 0.0000 0.6233 0.0000 0.0000 -0.7722 0.0000 0.0000 0.6628 0.0000 0.0000 -2.3487 0.0000 0.0000 -0.2392 0.0000 0.0000 2.1934 0.0000 0.0000 0.6628 0.0000 0.0000 -2.3487 0.0000 0.0000 -1.0741 0.0000 0.0000 2.1935 0.0000 0.0000 -2.3516 0.0000 0.0000 -0.0001 -0.0525 -0.1614 1.9397 0.1570 -0.0541 -2.3516 0.0000 0.0000 -0.0001 0.0720 0.2210 1.9496 -0.2166 0.0746 
0.0058 -0.4170 -0.3562 0.0000 0.0000 0.0000 0.0000 0.0000 0.0000 0.0000 0.0000 0.0000 0.8987 0.0000 0.0000 -1.1135 0.0000 0.0000 0.9556 0.0000 0.0000 -3.3951 0.0000 0.0000 -0.7142 0.0000 0.0000 3.1694 0.0000 0.0000 0.9556 0.0000 0.0000 -3.3951 0.0000 0.0000 -1.5492 0.0000 0.0000 3.1694 0.0000 0.0000 -3.3993 0.0000 0.0000 -0.0002 -0.0758 -0.2326 2.8014 0.2261 -0.0798 -3.3993 0.0000 0.0000 -0.0003 0.1038 0.3186 2.8157 -0.3119 0.1101 
0.0079 -0.5677 -0.4849 0.0000 0.0000 0.0000 0.0000 0.0000 0.0000 0.0000 0.0000 0.0000 1.2237 0.0000 0.0000 -1.5164 0.0000 0.0000 1.3012 0.0000 0.0000 -4.6371 0.0000 0.0000 -1.2754 0.0000 0.0000 4.3269 0.0000 0.0000 1.3012 0.0000 0.0000 -4.6371 0.0000 0.0000 -2.1104 0.0000 0.0000 4.3269 0.0000 0.0000 -4.6428 0.0000 0.0000 -0.0003 -0.1031 -0.3167 3.8220 0.3074 -0.1116 -4.6428 0.0000 0.0000 -0.0005 0.1413 0.4338 3.8418 -0.4242 0.1541 
0.0104 -0.7409 -0.6329 0.0000 0.0000 0.0000 0.0000 0.0000 0.0000 0.0000 0.0000 0.0000 1.5976 0.0000 0.0000 -1.9799 0.0000 0.0000 1.6988 0.0000 0.0000 -6.0744 0.0000 0.0000 -1.9215 0.0000 0.0000 5.6651 0.0000 0.0000 1.6988 0.0000 0.0000 -6.0744 0.0000 0.0000 -2.7565 0.0000 0.0000 5.6651 0.0000 0.0000 -6.0819 0.0000 0.0000 -0.0005 -0.1346 -0.4134 5.0007 0.4006 -0.1501 -6.0819 0.0000 0.0000 -0.0009 0.1844 0.5662 5.0270 -0.5528 0.2073 
0.0131 -0.9362 -0.7997 0.0000 0.0000 0.0000 0.0000 0.0000 0.0000 0.0000 0.0000 0.0000 2.0191 0.0000 0.0000 -2.5026 0.0000 0.0000 2.1471 0.0000 0.0000 -7.7057 0.0000 0.0000 -2.6506 0.0000 0.0000 7.1825 0.0000 0.0000 2.1471 0.0000 0.0000 -7.7057 0.0000 0.0000 -3.4855 0.0000 0.0000 7.1825 0.0000 0.0000 -7.7154 0.0000 0.0000 -0.0008 -0.1701 -0.5223 6.3354 0.5052 -0.1960 -7.7153 0.0000 0.0000 -0.0015 0.2330 0.7155 6.3691 -0.6971 0.2707 
0.0161 -1.1527 -0.9847 0.0000 0.0000 0.0000 0.0000 0.0000 0.0000 0.0000 0.0000 0.0000 2.4867 0.0000 0.0000 -3.0826 0.0000 0.0000 2.6444 0.0000 0.0000 -9.5280 0.0000 0.0000 -3.4600 0.0000 0.0000 8.8756 0.0000 0.0000 2.6444 0.0000 0.0000 -9.5280 0.0000 0.0000 -4.2950 0.0000 0.0000 8.8756 0.0000 0.0000 -9.5400 0.0000 0.0000 -0.0012 -0.2094 -0.6431 7.8225 0.6204 -0.2500 -9.5400 0.0000 0.0000 -0.0022 0.2869 0.8810 7.8649 -0.8561 0.3454 
0.0195 -1.3894 -1.1869 0.0000 0.0000 0.0000 0.0000 0.0000 0.0000 0.0000 0.0000 0.0000 2.9982 0.0000 0.0000 -3.7173 0.0000 0.0000 3.1885 0.0000 0.0000 -11.5363 0.0000 0.0000 -4.3464 0.0000 0.0000 10.7395 0.0000 0.0000 3.1885 0.0000 0.0000 -11.5363 0.0000 0.0000 -5.1814 0.0000 0.0000 10.7395 0.0000 0.0000 -11.5511 0.0000 0.0000 -0.0017 -0.2524 -0.7752 9.4573 0.7454 -0.3128 -11.5511 0.0000 0.0000 -0.0032 0.3458 1.0619 9.5094 -1.0286 0.4322 
